<svg width="32" height="31" viewBox="0 0 32 31" fill="none" xmlns="http://www.w3.org/2000/svg">
<g clip-path="url(#clip0_1050_1146)">
<path d="M14 -0.00195312H17.9966C18.1851 0.0216056 18.3728 0.046789 18.5613 0.0679106C21.3773 0.38311 23.9123 1.39288 26.1173 3.18335C28.8927 5.44092 30.6217 8.33214 31.2676 11.8578C31.3675 12.4013 31.426 12.9521 31.504 13.4996V14.6499C31.2457 15.2998 30.7582 15.507 30.0749 15.5062C20.6908 15.4932 11.307 15.4902 1.92341 15.4972C1.82267 15.4972 1.72111 15.4972 1.62036 15.4972C0.963881 15.4745 0.501579 15.0098 0.505642 14.3534C0.504928 13.8792 0.528253 13.4053 0.575518 12.9334C0.881822 10.1283 1.88929 7.60182 3.66942 5.40599C5.9281 2.61875 8.82701 0.882717 12.3629 0.234446C12.9032 0.134525 13.4516 0.0760343 14 -0.00195312ZM11.5699 8.30371C11.5699 8.10224 11.5813 7.89752 11.5699 7.70012C11.5285 7.1079 11.0873 6.67247 10.5218 6.65135C9.92386 6.62942 9.43881 7.01448 9.38438 7.62132C9.34172 8.07199 9.34172 8.52568 9.38438 8.97635C9.40762 9.25577 9.54004 9.51478 9.75296 9.69725C9.96587 9.87973 10.2421 9.97096 10.5218 9.95119C11.1084 9.91951 11.5431 9.48002 11.5781 8.8748C11.5829 8.68633 11.5699 8.49461 11.5699 8.30371ZM20.4259 8.30371C20.4259 8.51492 20.4097 8.72776 20.4259 8.93736C20.4465 9.21148 20.5691 9.46791 20.7697 9.65595C20.9702 9.84398 21.234 9.94992 21.5089 9.95282C21.7795 9.96488 22.0444 9.87255 22.2488 9.6949C22.4533 9.51725 22.5816 9.26787 22.6074 8.99828C22.6515 8.53899 22.6515 8.07654 22.6074 7.61726C22.5497 7.01204 22.0614 6.62779 21.4634 6.65135C20.8947 6.6741 20.4592 7.11115 20.4186 7.70743C20.417 7.90402 20.4284 8.1063 20.4284 8.30696L20.4259 8.30371ZM17.0875 8.31914C17.0875 8.07543 17.1061 7.83172 17.0875 7.59532C17.0562 7.33318 16.9296 7.09168 16.7319 6.91674C16.5342 6.7418 16.279 6.64561 16.015 6.64647C15.4503 6.6416 14.9531 7.05266 14.9165 7.59776C14.8873 8.05981 14.8873 8.52324 14.9165 8.98529C14.9498 9.53282 15.4454 9.95363 16.0036 9.95282C16.2729 9.95474 16.5332 9.85655 16.7341 9.6773C16.935 9.49805 17.0621 9.25054 17.0907 8.98285C17.1078 8.76595 17.0899 8.54336 17.0899 8.31995L17.0875 8.31914Z" fill="#60340B"/>
<path d="M31.5001 23.0053V26.0297C31.4051 26.4188 31.3376 26.8185 31.2093 27.1955C30.3968 29.5473 28.3526 30.9925 25.8364 30.9941C19.2775 30.9941 12.7181 30.9941 6.15819 30.9941C6.00707 30.9941 5.85514 30.9941 5.70402 30.9827C3.22191 30.8536 1.01929 28.9705 0.627674 26.5196C0.465179 25.5033 0.52124 24.4505 0.500928 23.4131C0.484678 22.5706 0.919353 22.1442 1.76026 22.1442C6.81549 22.1442 11.8713 22.1428 16.9276 22.1401C17.2925 22.1348 17.6481 22.255 17.935 22.4805C18.9969 23.2839 20.0637 24.08 21.1297 24.8786C21.2646 24.9793 21.4019 25.0776 21.5359 25.1783C22.7473 24.2701 23.9441 23.3773 25.1344 22.4772C25.4217 22.2517 25.7783 22.1326 26.1435 22.1401C27.4654 22.149 28.7873 22.1628 30.1092 22.1352C30.7925 22.123 31.2613 22.3578 31.5001 23.0053Z" fill="#60340B"/>
<path d="M31.5001 19.0702C31.2499 19.7274 30.7616 19.9321 30.0775 19.9313C20.6527 19.9188 11.228 19.9161 1.80331 19.9232C1.10133 19.9232 0.684529 19.6445 0.537471 19.0824C0.499544 18.9331 0.493684 18.7775 0.520274 18.6258C0.546864 18.4741 0.605304 18.3297 0.691739 18.2022C0.778175 18.0747 0.890645 17.967 1.02174 17.8861C1.15284 17.8053 1.29959 17.7531 1.45232 17.733C1.59293 17.7185 1.73429 17.7126 1.87562 17.7152C11.2917 17.7152 20.7072 17.7124 30.1221 17.707C30.8014 17.707 31.2694 17.9353 31.5033 18.5852L31.5001 19.0702Z" fill="#60340B"/>
</g>
<defs>
<clipPath id="clip0_1050_1146">
<rect width="31" height="31" fill="white" transform="translate(0.5 -0.00195312)"/>
</clipPath>
</defs>
</svg>
