<svg width="28" height="31" viewBox="0 0 28 31" fill="none" xmlns="http://www.w3.org/2000/svg">
<g clip-path="url(#clip0_1050_1173)">
<path d="M14.9241 -0.00211945C15.5823 0.0972298 16.2534 0.14425 16.8972 0.301237C22.5928 1.70729 26.1122 5.27552 27.4743 10.9559C27.5688 11.3895 27.6349 11.8288 27.6721 12.2709C27.7178 12.7017 27.7277 13.1355 27.7573 13.6413C27.6257 13.5449 27.4876 13.4575 27.3441 13.3797C26.9393 13.1992 26.5345 13.0157 26.1183 12.8685C25.9394 12.8056 25.8634 12.7404 25.8451 12.5455C25.6657 10.4854 24.9363 8.51073 23.7327 6.82643C22.3778 4.8941 20.4678 3.41566 18.254 2.58551C16.5467 1.9293 14.7075 1.68704 12.8878 1.87869C10.5855 2.09798 8.40189 2.99952 6.61843 4.46708C4.70379 6.00357 3.32463 8.1032 2.67753 10.4667C2.48425 11.1493 2.41805 11.872 2.28336 12.5743C2.26586 12.666 2.20727 12.7919 2.13117 12.8238C1.56199 13.0688 0.984436 13.294 0.357422 13.5465C0.433516 12.8215 0.457102 12.0563 0.601681 11.3138C1.52774 6.54659 4.22299 3.14596 8.64634 1.12106C10.0049 0.50922 11.4627 0.145487 12.9502 0.0471755C13.0397 0.0351863 13.1283 0.017967 13.2158 -0.00439453L14.9241 -0.00211945Z" fill="#60340B"/>
<path d="M16.64 27.3556C17.6825 27.3556 18.7166 27.3943 19.7461 27.345C20.8716 27.2912 21.8463 26.4759 22.0906 25.5249C21.634 25.5037 21.1501 25.5545 20.7049 25.449C19.4509 25.1457 18.6504 24.1264 18.6375 22.8311C18.6154 20.3686 18.6025 17.9061 18.6375 15.4443C18.6702 13.27 20.9203 12.0316 22.7884 13.1343C23.6574 13.647 24.082 14.4592 24.0896 15.4542C24.1033 18.5636 24.12 21.673 24.0835 24.7824C24.0553 27.1774 22.0731 29.1227 19.67 29.1811C18.7387 29.2038 17.8073 29.1917 16.8759 29.1811C16.6971 29.1811 16.6141 29.2387 16.5388 29.3987C15.9856 30.5879 14.7445 31.2075 13.4859 30.9352C12.2722 30.6728 11.3857 29.5952 11.3416 28.3294C11.299 27.0879 12.1839 25.9503 13.4425 25.6295C14.6319 25.3262 15.9536 25.9443 16.5 27.0576C16.5487 27.1585 16.5936 27.257 16.64 27.3556Z" fill="#60340B"/>
<path d="M9.51616 19.1634C9.51616 20.3541 9.52225 21.5447 9.51616 22.7346C9.50855 23.9723 8.78109 25.028 7.71121 25.3776C5.87354 25.9768 4.09066 24.7664 4.0587 22.8393C4.02015 20.3685 4.02015 17.8969 4.0587 15.4245C4.09675 13.2646 6.33315 12.0375 8.19669 13.1273C9.10069 13.6582 9.50551 14.5 9.51312 15.5314C9.52301 16.7426 9.51616 17.953 9.51616 19.1634Z" fill="#60340B"/>
<path d="M2.2583 14.7207V23.5605C1.53693 23.3178 0.990576 22.8613 0.692288 22.1711C0.526321 21.7834 0.433709 21.3684 0.419113 20.9471C0.38411 19.7382 0.400088 18.5271 0.408459 17.3174C0.413785 16.0858 1.17016 15.0241 2.2583 14.7207Z" fill="#60340B"/>
<path d="M25.8923 23.5454V14.7056C26.4479 14.8833 26.9275 15.2417 27.2544 15.7233C27.578 16.1799 27.7487 16.7267 27.7422 17.2856C27.7422 18.5157 27.7521 19.7458 27.7422 20.9759C27.7292 22.1916 26.9721 23.2329 25.8923 23.5454Z" fill="#60340B"/>
</g>
<defs>
<clipPath id="clip0_1050_1173">
<rect width="27.3953" height="31" fill="white" transform="translate(0.364258 -0.00195312)"/>
</clipPath>
</defs>
</svg>
