<svg width="51" height="60" viewBox="0 0 51 60" fill="none" xmlns="http://www.w3.org/2000/svg">
<path d="M23.6352 9.25218V4.95184C22.2474 4.95184 20.8856 4.96943 19.5256 4.94656C17.9987 4.92194 16.9952 3.43573 17.5691 2.05505C17.9117 1.23367 18.5517 0.751751 19.4369 0.748234C23.6474 0.730645 27.8578 0.728886 32.0665 0.748234C33.1969 0.75351 34.0752 1.71383 34.0804 2.83245C34.0856 3.97921 33.1935 4.92194 32.0248 4.94305C30.6595 4.96767 29.2943 4.94832 27.8804 4.94832V9.26274C33.1187 9.764 37.7761 11.7022 41.9204 15.2006C42.3691 14.7186 42.8039 14.2385 43.2543 13.7724C43.83 13.1744 44.4108 12.5834 44.9987 11.9977C45.9378 11.062 47.2126 11.0216 48.0682 11.8922C48.9221 12.7611 48.8735 14.038 47.9378 14.9948C47.0682 15.8847 46.1848 16.7589 45.3082 17.6436C45.1569 17.7966 45.0143 17.9584 44.8456 18.1396C49.2856 23.6799 51.2804 29.98 50.5848 37.0646C50.0335 42.677 47.7813 47.5543 44.0074 51.7121C36.7361 59.7218 24.6613 62.0154 14.9795 57.2999C4.96389 52.4245 -0.430893 41.7571 0.925629 31.1936C2.36911 19.9529 11.2995 10.4376 23.6352 9.25218ZM4.91172 34.4158C4.90302 46.0188 14.1987 55.4831 25.6369 55.5165C37.2108 55.5517 46.5621 46.1472 46.5865 34.4457C46.6108 22.8814 37.2543 13.3854 25.83 13.3784C14.2735 13.3696 4.92041 22.7758 4.91172 34.4158Z" fill="#FAE2CB"/>
<path d="M42.418 34.4846C42.4215 43.7167 34.9415 51.2937 25.8093 51.3043C16.5485 51.3148 9.07193 43.7659 9.07715 34.4107C9.08237 25.1681 16.5554 17.5998 25.6841 17.5928C34.9519 17.5857 42.4128 25.1153 42.4163 34.4828L42.418 34.4846ZM23.665 29.1764C23.665 30.8878 23.6128 32.6009 23.6945 34.307C23.7206 34.8715 23.9519 35.5522 24.3276 35.9497C26.3485 38.0902 28.4302 40.1744 30.5311 42.2375C30.8615 42.5611 31.3815 42.7792 31.8441 42.8549C32.7067 42.9956 33.5345 42.4539 33.8998 41.6606C34.2772 40.841 34.1258 39.944 33.4389 39.244C31.7119 37.4852 29.9606 35.751 28.2476 33.9798C28.0232 33.7476 27.8545 33.3501 27.8511 33.0283C27.8215 30.1121 27.8337 27.1942 27.8337 24.2781C27.8337 22.7725 27.0041 21.8017 25.7328 21.8122C24.4806 21.8228 23.6685 22.7761 23.6667 24.2447C23.665 25.8892 23.6667 27.5337 23.6667 29.1782L23.665 29.1764Z" fill="#FAE2CB"/>
</svg>
