<svg width="32" height="31" viewBox="0 0 32 31" fill="none" xmlns="http://www.w3.org/2000/svg">
<g clip-path="url(#clip0_1050_1163)">
<path d="M27.2223 22.3808C28.4013 22.3489 29.4057 22.7092 30.2463 23.4969C31.0097 24.2113 31.427 25.1059 31.5551 26.147C31.5975 26.4917 31.4466 26.6994 31.1454 26.8106C31.3999 28.9729 30.4965 30.4837 28.7237 30.9146C27.3164 31.2594 25.3137 30.5837 24.7641 28.2964C24.7463 28.2964 24.72 28.2904 24.7115 28.2964C24.2136 28.8557 23.8547 28.7919 23.5867 28.0921C23.5214 27.9198 23.4713 27.7474 23.4306 27.6233C23.1125 27.6578 22.8089 27.719 22.5043 27.7198C19.8787 27.7273 17.2531 27.7273 14.6275 27.7198C14.3731 27.7198 14.2509 27.7448 14.2034 28.0646C13.9659 29.6434 12.5705 30.8035 10.9801 30.7888C10.2111 30.7853 9.4686 30.5036 8.88555 29.9943C8.30249 29.4849 7.91704 28.7813 7.7983 28.0094C7.78558 27.9232 7.76607 27.8422 7.7525 27.7715C7.49802 27.7216 7.25203 27.7009 7.0247 27.6242C6.06703 27.3027 5.52924 26.3659 5.61152 25.2179C5.67018 24.4341 5.86338 23.6667 6.18239 22.9505C6.49709 22.236 6.86099 21.5448 7.22149 20.851C7.25019 20.7997 7.28971 20.7555 7.33723 20.7215C7.38474 20.6875 7.43908 20.6647 7.49633 20.6546C9.99441 20.6451 12.4933 20.6477 14.9914 20.6494C15.0121 20.6527 15.0322 20.6594 15.0508 20.6692C14.8871 22.2145 15.1178 23.0823 15.8465 23.5736C15.8753 23.1332 15.905 22.7117 15.9313 22.286C16.0331 20.548 16.1349 18.8094 16.2367 17.0702C16.2672 16.5531 16.1179 16.3721 15.6056 16.3161C14.8379 16.2299 14.0702 16.1489 13.3034 16.0576C13.0919 16.0365 12.8871 15.9701 12.7026 15.8629C12.5181 15.7556 12.358 15.6099 12.2329 15.4352C12.1078 15.2606 12.0206 15.061 11.9769 14.8497C11.9331 14.6383 11.934 14.4199 11.9793 14.2089C12.4515 11.8739 12.9302 9.54012 13.4154 7.20743C13.63 6.17324 14.4884 5.55875 15.4876 5.68027C16.3885 5.78886 17.062 6.61018 17.084 7.5987C17.0944 7.75227 17.154 7.89817 17.2537 8.0141C18.1384 9.01382 19.3022 9.54299 20.5127 9.99631C21.0862 10.2183 21.6975 10.3223 22.3109 10.3023C23.1354 10.2721 23.9616 10.2919 24.7878 10.2962C25.8218 10.3023 26.4275 10.915 26.4334 11.9578C26.4334 12.2802 26.4411 12.6033 26.4283 12.9257C26.4165 13.3118 26.2598 13.6787 25.9902 13.9511C25.7207 14.2235 25.3588 14.3808 24.9787 14.3908C24.6394 14.402 24.306 14.3908 23.9252 14.3908C24.1678 16.2135 24.5537 17.8976 26.0899 19.0584C27.0755 19.8039 27.4589 20.8252 27.2672 22.0636C27.2503 22.1576 27.2393 22.2524 27.2223 22.3808ZM20.8443 12.8283C19.2056 12.6394 17.6508 11.9913 16.3537 10.9564C16.229 11.5019 16.1086 11.9992 16.0017 12.4991C15.9169 12.9127 16.0119 13.0894 16.4055 13.2411C17.127 13.518 17.8492 13.793 18.5719 14.0659C19.4854 14.4106 19.8375 14.9329 19.7408 15.911C19.5312 18.0389 19.2988 20.1642 19.0774 22.2886C19.0147 22.8919 18.9553 23.4951 18.8942 24.1131H20.8452L20.8443 12.8283ZM27.9696 29.939C29.5991 29.9459 30.6984 28.2421 30.0351 26.7442C30.0019 26.6483 29.9417 26.5645 29.8619 26.5032C29.782 26.4418 29.6862 26.4058 29.5863 26.3995C28.3301 26.2702 27.1459 26.4857 26.0458 27.1346C25.9466 27.1852 25.8642 27.2643 25.8089 27.3621C25.7535 27.4598 25.7276 27.5719 25.7345 27.6845C25.7442 28.282 25.9832 28.8521 26.4005 29.2732C26.8179 29.6944 27.3806 29.9333 27.9687 29.939H27.9696ZM8.82383 27.744C8.8128 28.848 9.91128 29.8124 11.1082 29.7606C12.2245 29.7141 13.2661 28.7092 13.1821 27.744H8.82383Z" fill="#60340B"/>
<path d="M5.64979 7.22434C6.79266 7.22434 7.93553 7.22434 9.0784 7.22434C10.0963 7.22434 10.7265 7.86468 10.7274 8.89112C10.7274 10.7079 10.7274 12.5246 10.7274 14.3413C10.7274 15.3514 10.0929 15.9978 9.103 15.9986C6.79577 15.9986 4.48854 15.9986 2.18131 15.9986C1.21007 15.9986 0.569646 15.3479 0.564556 14.3663C0.561163 12.5278 0.561163 10.6892 0.564556 8.85061C0.564556 7.88536 1.21007 7.22951 2.15757 7.2252C3.32136 7.22003 4.48515 7.22434 5.64979 7.22434Z" fill="#60340B"/>
<path d="M15.2809 19.6132H13.8083C11.6394 19.6132 9.46956 19.6132 7.3006 19.6184C7.20753 19.6262 7.11406 19.6093 7.02932 19.5694C6.94459 19.5295 6.87147 19.468 6.8171 19.3909C6.41979 18.8823 6.18956 18.2598 6.15886 17.6112C6.13765 17.1682 6.32257 16.9648 6.75263 16.9648C9.39803 16.9648 12.0437 16.9648 14.6897 16.9648C15.0519 16.9648 15.2665 17.126 15.2758 17.4552C15.2945 18.1585 15.2809 18.866 15.2809 19.6132Z" fill="#60340B"/>
<path d="M14.2866 2.56523C14.2918 1.88011 14.5644 1.22508 15.0445 0.744023C15.5247 0.262962 16.1732 -0.00479512 16.8475 -0.000435875C17.1817 0.00238179 17.512 0.0720516 17.8197 0.204594C18.1274 0.337137 18.4064 0.529957 18.6407 0.772045C18.875 1.01413 19.0601 1.30075 19.1855 1.61552C19.3108 1.93029 19.3738 2.26706 19.371 2.6066C19.3623 3.28647 19.0904 3.9355 18.6141 4.41312C18.1378 4.89075 17.4955 5.15853 16.8263 5.15847C16.4919 5.1578 16.1609 5.09016 15.8522 4.95944C15.5436 4.82872 15.2633 4.63747 15.0275 4.39663C14.7916 4.15579 14.6048 3.87009 14.4777 3.55584C14.3505 3.2416 14.2856 2.90498 14.2866 2.56523Z" fill="#60340B"/>
</g>
<defs>
<clipPath id="clip0_1050_1163">
<rect width="31" height="31" fill="white" transform="translate(0.562012 -0.00195312)"/>
</clipPath>
</defs>
</svg>
