<svg width="30" height="32" viewBox="0 0 30 32" fill="none" xmlns="http://www.w3.org/2000/svg">
<g filter="url(#filter0_d_1050_1127)">
<path d="M22.5047 5.48857C20.5006 3.51982 17.8316 2.43701 14.9951 2.43701C9.14055 2.43701 4.37652 7.10576 4.37652 12.8433C4.37652 14.6761 4.86441 16.4667 5.79234 18.0464L4.28564 23.437L9.91543 21.9886C11.4652 22.8183 13.211 23.2542 14.9904 23.2542H14.9951C20.845 23.2542 25.7142 18.5854 25.7142 12.8479C25.7142 10.0683 24.5089 7.45732 22.5047 5.48857ZM14.9951 21.5011C13.4071 21.5011 11.8526 21.0839 10.499 20.2964L10.1785 20.1089L6.83985 20.9667L7.72952 17.7745L7.51906 17.4464C6.63418 16.0683 6.17021 14.4792 6.17021 12.8433C6.17021 8.07607 10.1307 4.19482 14.9999 4.19482C17.358 4.19482 19.5726 5.09482 21.2372 6.73076C22.9017 8.3667 23.9253 10.537 23.9205 12.8479C23.9205 17.6198 19.8596 21.5011 14.9951 21.5011ZM19.8357 15.0229C19.5726 14.8917 18.2668 14.2636 18.0229 14.1792C17.7789 14.0901 17.602 14.0479 17.425 14.3104C17.248 14.5729 16.741 15.1542 16.5832 15.3323C16.4301 15.5058 16.2723 15.5292 16.0092 15.3979C14.4499 14.6339 13.4263 14.0339 12.3979 12.3042C12.1252 11.8448 12.6705 11.8776 13.1775 10.8839C13.2636 10.7104 13.2206 10.5604 13.1536 10.4292C13.0867 10.2979 12.5557 9.01826 12.3357 8.49795C12.1205 7.9917 11.9004 8.06201 11.7378 8.05264C11.5848 8.04326 11.4078 8.04326 11.2308 8.04326C11.0538 8.04326 10.7668 8.10889 10.5229 8.3667C10.2789 8.6292 9.59496 9.25732 9.59496 10.537C9.59496 11.8167 10.5468 13.0542 10.676 13.2276C10.8099 13.4011 12.5462 16.0261 15.2104 17.1558C16.8941 17.8683 17.5541 17.9292 18.396 17.8073C18.9078 17.7323 19.9649 17.1792 20.1849 16.5698C20.4049 15.9604 20.4049 15.4401 20.3379 15.3323C20.2758 15.2151 20.0988 15.1495 19.8357 15.0229Z" fill="#34201F"/>
</g>
<defs>
<filter id="filter0_d_1050_1127" x="-1" y="0.937012" width="32" height="32" filterUnits="userSpaceOnUse" color-interpolation-filters="sRGB">
<feFlood flood-opacity="0" result="BackgroundImageFix"/>
<feColorMatrix in="SourceAlpha" type="matrix" values="0 0 0 0 0 0 0 0 0 0 0 0 0 0 0 0 0 0 127 0" result="hardAlpha"/>
<feOffset dy="4"/>
<feGaussianBlur stdDeviation="2"/>
<feComposite in2="hardAlpha" operator="out"/>
<feColorMatrix type="matrix" values="0 0 0 0 0 0 0 0 0 0 0 0 0 0 0 0 0 0 0.25 0"/>
<feBlend mode="normal" in2="BackgroundImageFix" result="effect1_dropShadow_1050_1127"/>
<feBlend mode="normal" in="SourceGraphic" in2="effect1_dropShadow_1050_1127" result="shape"/>
</filter>
</defs>
</svg>
