<svg width="30" height="32" viewBox="0 0 30 32" fill="none" xmlns="http://www.w3.org/2000/svg">
<g clip-path="url(#clip0_1050_1153)">
<path d="M26.0281 25.8124V28.0241C25.958 28.3081 25.9103 28.5999 25.8156 28.8755C25.2236 30.5937 23.7286 31.6468 21.8896 31.6506C17.0983 31.6506 12.307 31.6506 7.51565 31.6506C7.4048 31.6506 7.29472 31.6506 7.18386 31.6422C5.36942 31.5506 3.76051 30.1726 3.4726 28.382C3.35405 27.6392 3.39562 26.8701 3.38023 26.1126C3.36791 25.4968 3.68815 25.1889 4.30015 25.1889C7.99524 25.1889 11.6883 25.1889 15.3793 25.1889C15.6457 25.1854 15.9054 25.2732 16.1152 25.4375C16.8907 26.0251 17.6684 26.6092 18.4485 27.1896C18.547 27.2666 18.6471 27.3351 18.7487 27.409C19.6386 26.7385 20.5093 26.0849 21.3784 25.4283C21.5885 25.2641 21.8486 25.1771 22.1151 25.1819C23.0812 25.1889 24.0473 25.1989 25.0119 25.1819C25.5084 25.1681 25.851 25.3397 26.0281 25.8124Z" fill="#1D0605" fill-opacity="0.9"/>
<path d="M29.4925 5.37683C29.2616 6.25672 29.0306 7.13508 28.8074 8.01651C27.9775 11.3267 27.1513 14.6369 26.3286 17.9471C26.2809 18.1411 26.2054 18.2034 26.003 18.2034C18.485 18.1978 10.9665 18.196 3.44752 18.198C3.38132 18.198 3.31435 18.1919 3.21658 18.1865C3.06262 17.5868 2.90866 16.9856 2.76008 16.3828C1.8594 12.7842 0.961291 9.18508 0.065744 5.58545C0.0100214 5.40263 -0.00933125 5.21067 0.00877877 5.02041C0.113473 4.37376 0.85942 4.09663 1.39444 4.50694C2.24123 5.16513 3.07802 5.8441 3.91788 6.51538L7.51521 9.39447C8.02636 9.80324 8.1018 10.0527 7.89472 10.6662C7.75098 11.0735 7.76379 11.5197 7.93068 11.918C8.09756 12.3164 8.40659 12.6385 8.79771 12.8217C9.17951 13.001 9.61361 13.0351 10.0187 12.9175C10.4238 12.7999 10.7722 12.5387 10.9986 12.1827C11.229 11.8233 11.3186 11.3915 11.2501 10.9701C11.1816 10.5487 10.9599 10.1674 10.6276 9.89947C10.1218 9.47915 10.0517 9.15429 10.3435 8.56923C11.5239 6.20232 12.7058 3.83464 13.8892 1.46619C14.0694 1.10284 14.3149 0.841104 14.736 0.840334C15.1571 0.839564 15.4081 1.09745 15.589 1.46157C16.7694 3.83105 17.951 6.19847 19.134 8.56384C19.4273 9.15121 19.3564 9.48762 18.8576 9.89639C18.5239 10.1635 18.3011 10.5448 18.2322 10.9667C18.1632 11.3885 18.253 11.8209 18.4842 12.1804C18.7094 12.5371 19.0568 12.7996 19.4615 12.9186C19.8662 13.0376 20.3004 13.0051 20.6828 12.8271C21.0701 12.6477 21.3779 12.3321 21.5473 11.9403C21.7167 11.5486 21.7359 11.1082 21.6012 10.7031C21.3849 10.0334 21.4472 9.82172 21.9861 9.386C23.9645 7.80173 25.9432 6.21849 27.9221 4.63627C28.5819 4.10895 29.1069 4.22442 29.4925 4.97499V5.37683Z" fill="#1D0605" fill-opacity="0.9"/>
<path d="M3.45654 19.9526H26.0282V20.2467C26.0282 20.9572 26.0282 21.6678 26.0282 22.3783C26.0282 23.0658 25.6887 23.4037 25.0005 23.4037H4.5235C3.78064 23.4037 3.4604 23.0788 3.45963 22.326C3.45963 21.6347 3.45963 20.9436 3.45963 20.2529L3.45654 19.9526Z" fill="#1D0605" fill-opacity="0.9"/>
</g>
<defs>
<clipPath id="clip0_1050_1153">
<rect width="29.4922" height="30.8086" fill="white" transform="translate(0 0.84375)"/>
</clipPath>
</defs>
</svg>
